<?xml version="1.0" standalone="no"?><!DOCTYPE svg PUBLIC "-//W3C//DTD SVG 1.1//EN" "http://www.w3.org/Graphics/SVG/1.1/DTD/svg11.dtd"><svg t="1605011726615" class="icon" viewBox="0 0 1024 1024" version="1.1" xmlns="http://www.w3.org/2000/svg" p-id="2490" width="200" height="200" xmlns:xlink="http://www.w3.org/1999/xlink"><defs><style type="text/css"></style></defs><path d="M446.4 289.81333333c6.72-6.4 10.02666667-14.4 10.02666667-24.10666666q0-29.97333333-35.94666667-29.97333334h-24v63.78666667h23.14666667c11.09333333 0 19.94666667-3.2 26.77333333-9.70666667z" fill="#1890FF" p-id="2491"></path><path d="M966.72 338.77333333l-0.74666667-4.16-79.04-191.14666666a98.13333333 98.13333333 0 0 0-92.90666666-62.4H244.58666667a95.68 95.68 0 0 0-94.29333334 60.58666666l-84.26666666 193.92-0.74666667 3.94666667a172.05333333 172.05333333 0 0 0-8.85333333 54.50666667 175.78666667 175.78666667 0 0 0 57.49333333 129.38666666l0.21333333 335.89333334a85.01333333 85.01333333 0 0 0 85.01333334 83.73333333h1.17333333l631.89333333-0.32h0.74666667a85.54666667 85.54666667 0 0 0 85.44-83.84V522.56a176.53333333 176.53333333 0 0 0 57.38666667-129.28 172.26666667 172.26666667 0 0 0-9.06666667-54.50666667zM542.29333333 203.84h55.78666667l32.10666667 65.81333333a111.14666667 111.14666667 0 0 1 6.61333333 17.70666667h0.53333333c1.92-5.76 4.26666667-11.94666667 7.04-18.45333333l35.41333334-65.06666667h51.2L666.02666667 310.4l66.56 108.26666667h-54.29333334l-38.61333333-71.25333334c-1.38666667-2.56-2.77333333-7.25333333-4.26666667-13.97333333h-0.53333333a103.25333333 103.25333333 0 0 1-5.01333333 14.4l-38.72 70.82666667h-54.72l68.90666666-107.41333334z m-192.96-4.05333333h77.65333334q79.04 0 79.04 60.05333333c0 15.14666667-4.37333333 28.05333333-13.22666667 38.82666667s-20.90666667 18.34666667-36.37333333 22.72v0.53333333c10.24 3.52 21.54666667 14.72 33.92 33.81333333l41.70666666 65.70666667h-54.29333333L442.98666667 363.73333333q-10.77333333-17.92-17.6-23.04a23.89333333 23.89333333 0 0 0-14.61333334-5.12h-14.29333333v85.86666667h-47.14666667z m482.77333334 685.44l-632.96 0.32c-15.04 0-27.41333333-12.16-27.62666667-26.24V558.29333333a184.10666667 184.10666667 0 0 0 67.41333333 11.41333334v0.21333333h0.42666667a184.42666667 184.42666667 0 0 0 138.66666667-63.25333333 182.93333333 182.93333333 0 0 0 137.92 62.82666666h0.96a182.50666667 182.50666667 0 0 0 137.38666666-63.14666666A183.04 183.04 0 0 0 793.6 569.06666667h0.64a184.64 184.64 0 0 0 66.66666667-11.41333334v300.16c-0.32 15.04-12.8 27.41333333-28.8 27.41333334z" fill="#1890FF" p-id="2492"></path><path d="M455.14666667 579.94666667c-21.54666667 0-40.96 8.53333333-56 23.68l-101.33333334 101.33333333a77.97333333 77.97333333 0 0 0 0 109.86666667c15.14666667 15.14666667 34.56 23.68 56.10666667 23.68s40.96-8.53333333 56-23.68l101.33333333-101.33333334c15.04-15.04 23.68-34.45333333 23.68-56s-8.64-40.96-23.68-56-34.56-21.54666667-56.10666666-21.54666666z m45.33333333 122.77333333l-101.33333333 101.33333333c-12.90666667 12.90666667-28.05333333 19.41333333-45.22666667 19.41333334s-32.32-6.50666667-45.33333333-19.41333334c-25.81333333-25.81333333-25.81333333-66.77333333 0-90.56l101.33333333-101.22666666c12.90666667-12.90666667 28.05333333-19.41333333 45.22666667-19.41333334s32.32 6.50666667 45.33333333 19.41333334 19.41333333 27.94666667 19.41333333 45.22666666-6.50666667 32.32-19.41333333 45.22666667z m0 0" fill="#1890FF" p-id="2493"></path><path d="M457.38666667 603.62666667a50.45333333 50.45333333 0 0 0-36.69333334 15.04l-32.32 32.32c-2.13333333 2.24-2.13333333 4.37333333 0 6.50666666 0 0 2.13333333 2.13333333 4.26666667 2.13333334s2.24 0 4.37333333-2.13333334l32.32-32.32c8.64-8.64 17.17333333-12.90666667 28.05333334-12.90666666s21.54666667 4.26666667 27.94666666 12.90666666c2.13333333 2.13333333 4.37333333 2.13333333 6.50666667 0s2.13333333-4.26666667 0-6.50666666c-8.64-8.53333333-19.41333333-15.04-34.45333333-15.04zM312.96 713.49333333a61.12 61.12 0 0 0 0 86.29333334c10.77333333 10.77333333 25.81333333 17.17333333 43.09333333 17.17333333s32.32-6.4 43.09333334-17.17333333l47.36-47.46666667-86.18666667-86.18666667zM673.49333333 671.36a25.6 25.6 0 0 0-10.77333333-10.77333333q-16.10666667-9.70666667-32.32 0c-12.90666667 6.50666667-27.94666667 12.90666667-27.94666667 32.32 0 4.37333333 2.13333333 10.77333333 4.26666667 15.14666666 12.90666667 21.54666667 23.68 43.09333333 36.69333333 64.64 2.13333333 6.4 4.26666667 4.26666667 8.53333334 2.13333334 17.28-10.77333333 34.56-19.41333333 51.73333333-28.05333334 4.37333333-2.13333333 6.50666667-4.26666667 2.24-10.77333333a446.50666667 446.50666667 0 0 0-32.42666667-64.64zM653.44 791.14666667c13.01333333 21.54666667 23.78666667 40.96 34.56 62.50666666 8.53333333 12.90666667 19.30666667 21.54666667 32.32 17.17333334 19.30666667-6.4 36.58666667-17.17333333 36.58666667-34.45333334v-2.13333333c0-4.26666667 0-8.64-4.26666667-12.90666667-13.01333333-21.54666667-25.92-45.33333333-36.69333333-66.88-2.13333333-4.26666667-2.13333333-6.4-6.4-4.26666666-17.28 10.77333333-34.56 19.41333333-53.97333334 30.18666666-6.4 2.13333333-6.4 4.26666667-2.13333333 10.77333334zM601.70666667 791.14666667c-34.45333333 15.04-66.77333333 28.05333333-101.22666667 43.09333333-8.64 4.26666667-8.64 6.50666667-2.24 12.90666667 13.01333333 15.14666667 30.18666667 23.68 49.6 23.68 38.82666667 0 71.14666667-36.58666667 64.64-73.28 0-6.4-4.26666667-8.53333333-10.77333333-6.4zM526.29333333 745.92c-25.81333333 8.53333333-40.96 32.32-43.09333333 60.26666667v4.37333333c0 12.90666667 2.13333333 15.04 15.04 8.64 32.42666667-13.01333333 64.74666667-28.05333333 97.06666667-40.96 8.64-4.37333333 8.64-6.50666667 4.26666666-13.01333333-19.41333333-21.54666667-47.36-30.08-73.28-19.30666667z" fill="#1890FF" p-id="2494"></path></svg>